<?xml version="1.0" encoding="utf-8"?>
<!-- Generator: Adobe Illustrator 16.0.0, SVG Export Plug-In . SVG Version: 6.00 Build 0)  -->
<!DOCTYPE svg PUBLIC "-//W3C//DTD SVG 1.1//EN" "http://www.w3.org/Graphics/SVG/1.1/DTD/svg11.dtd">
<svg version="1.1" id="Layer_1" xmlns="http://www.w3.org/2000/svg" xmlns:xlink="http://www.w3.org/1999/xlink" x="0px" y="0px"
	 width="70px" height="70px" viewBox="0 0 70 70" enable-background="new 0 0 70 70" xml:space="preserve">
<g>
	<path fill="#532336" d="M16.271,19.629h12.938l29.145,35.754V27.891c0-2.93-0.328-4.758-0.984-5.484
		c-0.867-0.984-2.238-1.477-4.113-1.477h-1.652v-1.301h16.594v1.301H66.51c-2.016,0-3.445,0.61-4.289,1.828
		c-0.516,0.75-0.773,2.461-0.773,5.133v40.184h-1.266l-31.43-38.391v29.355c0,2.93,0.316,4.758,0.949,5.484
		C30.592,65.508,31.963,66,33.814,66h1.688v1.301H18.908V66h1.652c2.039,0,3.481-0.609,4.325-1.828
		c0.515-0.75,0.773-2.461,0.773-5.133V25.887c-1.384-1.617-2.432-2.684-3.147-3.199c-0.715-0.515-1.764-0.996-3.146-1.441
		c-0.68-0.211-1.711-0.316-3.094-0.316V19.629z"/>
</g>
<g>
	<path fill="#0C5D87" d="M33.772,2.87v19.643h-1.486c-0.481-3.77-1.345-6.771-2.59-9.005c-1.245-2.234-3.02-4.006-5.322-5.319
		c-2.303-1.312-4.686-1.969-7.149-1.969c-2.785,0-5.088,0.887-6.908,2.66c-1.821,1.773-2.731,3.79-2.731,6.052
		c0,1.731,0.576,3.309,1.727,4.732c1.66,2.094,5.609,4.887,11.849,8.376c5.087,2.848,8.562,5.033,10.423,6.554
		c1.86,1.523,3.293,3.316,4.297,5.382c1.005,2.066,1.507,4.229,1.507,6.491c0,4.3-1.601,8.007-4.8,11.12
		c-3.2,3.114-7.316,4.67-12.351,4.67c-1.58,0-3.066-0.125-4.458-0.377c-0.831-0.141-2.551-0.649-5.161-1.528
		c-2.611-0.88-4.264-1.32-4.96-1.32c-0.669,0-1.199,0.21-1.586,0.629c-0.389,0.418-0.676,1.285-0.863,2.597H1.722V42.783h1.486
		c0.696,4.077,1.633,7.127,2.811,9.151s2.979,3.707,5.402,5.047c2.423,1.341,5.081,2.011,7.973,2.011
		c3.347,0,5.991-0.922,7.932-2.764c1.941-1.844,2.912-4.021,2.912-6.534c0-1.396-0.368-2.807-1.104-4.23
		c-0.737-1.425-1.882-2.75-3.435-3.979c-1.044-0.837-3.896-2.617-8.555-5.339c-4.659-2.722-7.972-4.893-9.94-6.513
		c-1.968-1.619-3.461-3.406-4.479-5.361C1.708,22.317,1.2,20.167,1.2,17.821c0-4.076,1.499-7.587,4.498-10.533
		C8.696,4.343,12.512,2.87,17.145,2.87c2.892,0,5.957,0.74,9.197,2.22c1.5,0.698,2.558,1.047,3.174,1.047
		c0.695,0,1.265-0.216,1.707-0.649c0.441-0.433,0.796-1.305,1.063-2.618H33.772z"/>
</g>
<g>
	<path fill="#532336" d="M28.861,65.296c-0.07-0.73-0.109-1.571-0.109-2.545V49.462c-1.064,0.902-2.098,1.842-3.094,2.824v10.465
		c0,0.841-0.028,1.575-0.079,2.225C26.663,65.03,27.757,65.154,28.861,65.296z"/>
</g>
</svg>
